<svg width="20" height="20" viewBox="0 0 20 20" fill="none" xmlns="http://www.w3.org/2000/svg">
<path d="M2.90913 7.60917L0.959126 9.55917C0.569126 9.94917 0.569126 10.5792 0.959126 10.9692L2.90913 12.9192C3.39913 13.4092 4.18913 13.4092 4.67913 12.9192C5.15913 12.4292 5.15913 11.6492 4.67913 11.1592L3.79913 10.2592L4.67913 9.36917C5.15913 8.87917 5.15913 8.09917 4.67913 7.60917C4.19913 7.11917 3.39913 7.11917 2.90913 7.60917ZM15.8391 7.60917C15.3591 8.09917 15.3591 8.87917 15.8391 9.36917L16.7191 10.2592L15.8391 11.1492C15.3591 11.6392 15.3591 12.4192 15.8391 12.9092C16.3291 13.3992 17.1191 13.3992 17.6091 12.9092L19.5591 10.9592C19.9491 10.5692 19.9491 9.93917 19.5591 9.54917L17.6091 7.59917C17.1191 7.11917 16.3191 7.11917 15.8391 7.60917ZM10.2591 16.7192L9.36913 15.8392C8.87913 15.3592 8.09913 15.3592 7.60913 15.8392C7.11913 16.3292 7.11913 17.1192 7.60913 17.6092L9.55913 19.5592C9.94913 19.9492 10.5791 19.9492 10.9691 19.5592L12.9191 17.6092C13.4091 17.1192 13.4091 16.3292 12.9191 15.8392C12.4291 15.3592 11.6491 15.3592 11.1591 15.8392L10.2591 16.7192ZM7.60913 4.67916C8.09913 5.15916 8.87913 5.15916 9.36913 4.67916L10.2591 3.79916L11.1491 4.67916C11.6391 5.15916 12.4191 5.15916 12.9091 4.67916C13.3991 4.18916 13.3991 3.39916 12.9091 2.90916L10.9591 0.959164C10.5691 0.569164 9.93913 0.569164 9.54913 0.959164L7.60913 2.90916C7.11913 3.39916 7.11913 4.19916 7.60913 4.67916Z" fill="#A6B1CB"/>
<path d="M10.259 13.2592C11.9159 13.2592 13.259 11.916 13.259 10.2592C13.259 8.6023 11.9159 7.25916 10.259 7.25916C8.60218 7.25916 7.25903 8.6023 7.25903 10.2592C7.25903 11.916 8.60218 13.2592 10.259 13.2592Z" fill="#A6B1CB"/>
</svg>
