<svg width="12" height="13" viewBox="0 0 12 13" fill="none" xmlns="http://www.w3.org/2000/svg">
<path d="M6.00001 0.666656C2.78001 0.666656 0.166672 3.27999 0.166672 6.49999C0.166672 9.71999 2.78001 12.3333 6.00001 12.3333C9.22001 12.3333 11.8333 9.71999 11.8333 6.49999C11.8333 3.27999 9.22001 0.666656 6.00001 0.666656ZM6.00001 11.1667C3.42751 11.1667 1.33334 9.07249 1.33334 6.49999C1.33334 3.92749 3.42751 1.83332 6.00001 1.83332C8.57251 1.83332 10.6667 3.92749 10.6667 6.49999C10.6667 9.07249 8.57251 11.1667 6.00001 11.1667ZM5.41667 8.83332H6.58334V9.99999H5.41667V8.83332ZM6.35584 3.02332C5.15417 2.84832 4.09251 3.58916 3.77167 4.65082C3.66667 4.98916 3.92334 5.33332 4.27917 5.33332H4.39584C4.63501 5.33332 4.82751 5.16416 4.90917 4.94249C5.09584 4.42332 5.65001 4.06749 6.25084 4.19582C6.80501 4.31249 7.21334 4.85499 7.16667 5.42082C7.10834 6.20249 6.22167 6.37166 5.73751 7.10082C5.73751 7.10666 5.73167 7.10666 5.73167 7.11249C5.72584 7.12416 5.72001 7.12999 5.71417 7.14166C5.66167 7.22916 5.60917 7.32832 5.56834 7.43332C5.56251 7.45082 5.55084 7.46249 5.54501 7.47999C5.53917 7.49166 5.53917 7.50332 5.53334 7.52082C5.46334 7.71916 5.41667 7.95832 5.41667 8.24999H6.58334C6.58334 8.00499 6.64751 7.80082 6.74667 7.62582C6.75834 7.60832 6.76417 7.59082 6.77584 7.57332C6.82251 7.49166 6.88084 7.41582 6.93917 7.34582C6.94501 7.33999 6.95084 7.32832 6.95667 7.32249C7.01501 7.25249 7.07917 7.18832 7.14917 7.12416C7.70917 6.59332 8.46751 6.16166 8.31001 5.04749C8.17001 4.03249 7.37084 3.17499 6.35584 3.02332Z" fill="#F48031"/>
</svg>
