<svg width="12" height="13" viewBox="0 0 12 13" fill="none" xmlns="http://www.w3.org/2000/svg">
<path d="M5.99999 0.666687C2.77999 0.666687 0.166656 3.28002 0.166656 6.50002C0.166656 9.72002 2.77999 12.3334 5.99999 12.3334C9.21999 12.3334 11.8333 9.72002 11.8333 6.50002C11.8333 3.28002 9.21999 0.666687 5.99999 0.666687ZM5.99999 11.1667C3.42749 11.1667 1.33332 9.07252 1.33332 6.50002C1.33332 3.92752 3.42749 1.83335 5.99999 1.83335C8.57249 1.83335 10.6667 3.92752 10.6667 6.50002C10.6667 9.07252 8.57249 11.1667 5.99999 11.1667ZM5.41666 8.83335H6.58332V10H5.41666V8.83335ZM6.35582 3.02335C5.15416 2.84835 4.09249 3.58919 3.77166 4.65085C3.66666 4.98919 3.92332 5.33335 4.27916 5.33335H4.39582C4.63499 5.33335 4.82749 5.16419 4.90916 4.94252C5.09582 4.42335 5.64999 4.06752 6.25082 4.19585C6.80499 4.31252 7.21332 4.85502 7.16666 5.42085C7.10832 6.20252 6.22166 6.37169 5.73749 7.10085C5.73749 7.10669 5.73166 7.10669 5.73166 7.11252C5.72582 7.12419 5.71999 7.13002 5.71416 7.14169C5.66166 7.22919 5.60916 7.32835 5.56832 7.43335C5.56249 7.45085 5.55082 7.46252 5.54499 7.48002C5.53916 7.49169 5.53916 7.50335 5.53332 7.52085C5.46332 7.71919 5.41666 7.95835 5.41666 8.25002H6.58332C6.58332 8.00502 6.64749 7.80085 6.74666 7.62585C6.75832 7.60835 6.76416 7.59085 6.77582 7.57335C6.82249 7.49169 6.88082 7.41585 6.93916 7.34585C6.94499 7.34002 6.95082 7.32835 6.95666 7.32252C7.01499 7.25252 7.07916 7.18835 7.14916 7.12419C7.70916 6.59335 8.46749 6.16169 8.30999 5.04752C8.16999 4.03252 7.37082 3.17502 6.35582 3.02335Z" fill="#FFF9F5"/>
</svg>
